<svg xmlns="http://www.w3.org/2000/svg" xmlns:xlink="http://www.w3.org/1999/xlink" viewBox="0 0 193.78 215.95"><defs><style>.cls-1,.cls-2,.cls-3,.cls-4,.cls-5,.cls-6,.cls-7{fill-rule:evenodd;}.cls-1{fill:url(#linear-gradient);}.cls-2{fill:url(#linear-gradient-2);}.cls-3{fill:url(#linear-gradient-3);}.cls-4{fill:url(#linear-gradient-4);}.cls-5{opacity:0.2;}.cls-5,.cls-6,.cls-7{isolation:isolate;}.cls-6{opacity:0.12;}.cls-7{fill:#fff;opacity:0.25;}</style><linearGradient id="linear-gradient" x1="3750.29" y1="-781.4" x2="3643.6" y2="-726.33" gradientTransform="translate(-4852.65 2011.98) scale(1.32 2.56)" gradientUnits="userSpaceOnUse"><stop offset="0" stop-color="#00a0ff"/><stop offset="0.01" stop-color="#00a1ff"/><stop offset="0.26" stop-color="#00beff"/><stop offset="0.51" stop-color="#00d2ff"/><stop offset="0.76" stop-color="#00dfff"/><stop offset="1" stop-color="#00e3ff"/></linearGradient><linearGradient id="linear-gradient-2" x1="3984.29" y1="-325" x2="3788.49" y2="-325" gradientTransform="translate(-3932.94 391.83) scale(1.04 0.87)" gradientUnits="userSpaceOnUse"><stop offset="0" stop-color="#ffe000"/><stop offset="0.41" stop-color="#ffbd00"/><stop offset="0.78" stop-color="orange"/><stop offset="1" stop-color="#ff9c00"/></linearGradient><linearGradient id="linear-gradient-3" x1="3651.45" y1="-524.09" x2="3539.33" y2="-378.63" gradientTransform="translate(-6096.76 815.53) scale(1.7 1.31)" gradientUnits="userSpaceOnUse"><stop offset="0" stop-color="#ff3a44"/><stop offset="1" stop-color="#c31162"/></linearGradient><linearGradient id="linear-gradient-4" x1="3565.08" y1="-664.31" x2="3615.15" y2="-599.32" gradientTransform="translate(-6096.76 813.56) scale(1.7 1.31)" gradientUnits="userSpaceOnUse"><stop offset="0" stop-color="#32a071"/><stop offset="0.07" stop-color="#2da771"/><stop offset="0.48" stop-color="#15cf74"/><stop offset="0.8" stop-color="#06e775"/><stop offset="1" stop-color="#00f076"/></linearGradient></defs><g id="Layer_2" data-name="Layer 2"><g id="Layer_2-2" data-name="Layer 2"><g id="g1231"><path id="path1192" class="cls-1" d="M3.82,3.31C1.4,5.92,0,9.94,0,15.15V200.76C0,206,1.4,210,3.91,212.51l.66.56,104-104v-2.34L4.48,2.76Z"/><path id="path1203" class="cls-2" d="M143.17,143.87l-34.69-34.7v-2.43L143.18,72l.75.47,41,23.32c11.75,6.62,11.75,17.54,0,24.25l-41,23.33-.76.46Z"/><path id="path1210" class="cls-3" d="M143.92,143.41,108.48,108,3.82,212.61c3.83,4.11,10.26,4.57,17.45.56l122.65-69.76"/><path id="path1223" class="cls-4" d="M143.92,72.52,21.27,2.85C14.09-1.26,7.65-.7,3.82,3.4L108.47,108Z"/><path id="path1225" class="cls-5" d="M143.17,142.66,21.36,211.86c-6.81,3.92-12.87,3.65-16.79.09l-.66.66.66.56c3.92,3.54,10,3.82,16.79-.09L144,143.41Z"/><path id="path1227" class="cls-6" d="M185,118.87l-41.88,23.79.75.75,41-23.33c5.87-3.35,8.77-7.73,8.77-12.12-.38,4-3.36,7.83-8.68,10.91Z"/><path id="path1229" class="cls-7" d="M21.27,4.06,185,97.06c5.32,3,8.3,6.89,8.77,10.91,0-4.38-2.9-8.77-8.77-12.13L21.27,2.85C9.52-3.87,0,1.72,0,15.15v1.22C0,2.94,9.52-2.56,21.27,4.06Z"/></g></g></g></svg>